<?xml version="1.0" ?><svg height="512" id="svg2" version="1.1" width="512" xmlns="http://www.w3.org/2000/svg" xmlns:cc="http://creativecommons.org/ns#" xmlns:dc="http://purl.org/dc/elements/1.1/" xmlns:inkscape="http://www.inkscape.org/namespaces/inkscape" xmlns:rdf="http://www.w3.org/1999/02/22-rdf-syntax-ns#" xmlns:sodipodi="http://sodipodi.sourceforge.net/DTD/sodipodi-0.dtd" xmlns:svg="http://www.w3.org/2000/svg"><defs id="defs4"><clipPath clipPathUnits="userSpaceOnUse" id="clipPath3847"><rect height="401.85031" id="rect3849" ry="24.940269" style="fill:#005cc8;fill-opacity:1;stroke:none" width="405.50885" x="192.91168" y="341.59683"/></clipPath><clipPath clipPathUnits="userSpaceOnUse" id="clipPath4206"><rect height="342.67416" id="rect4208" ry="21.83189" style="fill:#005ad2;fill-opacity:1;stroke:none" width="342.67416" x="275.56522" y="396.76877"/></clipPath></defs><g id="layer1" transform="translate(0,-540.36218)"><rect height="506.55707" id="rect3851" ry="32.272926" style="fill:#f84a37;fill-opacity:1;stroke:none" width="506.55707" x="3.1982057" y="544.98157"/><g clip-path="url(#clipPath4206)" id="g4145" style="opacity:0.76744186;fill:#000000;fill-opacity:0.05882353000000000" transform="matrix(1.4096067,0,0,1.3775576,-367.36203,36.755567)"><g id="g4147" style="fill:#000000;fill-opacity:0.05882353000000000;stroke:none"><path d="m 561.53848,561.01605 c 0,61.06995 -50.79847,110.57692 -113.46155,110.57692 l 707.10677,707.10683 c 62.6631,0 113.4616,-49.507 113.4616,-110.577 z" id="path4149" style="fill:#000000;fill-opacity:0.05882353000000000"/><path d="m 448.07693,671.59297 c -31.86024,0 -60.65337,-12.79797 -81.26213,-33.40672 l 707.1068,707.10675 c 20.6087,20.6088 49.4019,33.4068 81.2621,33.4068 z" id="path4151" style="fill:#000000;fill-opacity:0.05882353000000000"/><path d="m 366.8148,638.18625 c -19.92477,-19.92478 -32.19941,-47.15048 -32.19941,-77.1702 l 707.10681,707.10675 c 0,30.0197 12.2746,57.2455 32.1994,77.1702 z" id="path4153" style="fill:#000000;fill-opacity:0.05882353000000000"/><path d="m 334.61539,561.01605 c 0,-61.06994 50.79847,-110.57692 113.46154,-110.57692 l 707.10677,707.10677 c -62.6631,0 -113.4615,49.507 -113.4615,110.5769 z" id="path4155" style="fill:#000000;fill-opacity:0.05882353000000000"/><path d="m 448.07693,450.43913 c 31.86024,0 60.65338,12.79797 81.26214,33.40672 l 707.10673,707.10675 c -20.6087,-20.6087 -49.4018,-33.4067 -81.2621,-33.4067 z" id="path4157" style="fill:#000000;fill-opacity:0.05882353000000000"/><path d="m 529.33907,483.84585 c 19.92477,19.92478 32.19941,47.15049 32.19941,77.1702 l 707.10682,707.10675 c 0,-30.0197 -12.2747,-57.2454 -32.1995,-77.1702 z" id="path4159" style="fill:#000000;fill-opacity:0.05882353000000000"/></g><path d="m 561.53848,561.01605 c 0,61.06995 -50.79847,110.57692 -113.46155,110.57692 -62.66307,0 -113.46154,-49.50697 -113.46154,-110.57692 0,-61.06994 50.79847,-110.57692 113.46154,-110.57692 62.66308,0 113.46155,49.50698 113.46155,110.57692 z" id="path4111" style="fill:#000000;fill-opacity:0.05882353000000000;stroke:none"/></g><path d="m 225.4216,833.72452 85.48128,-49.41114 -85.48128,-49.41115 v 98.82229 M 415.81923,704.76144 c 2.14114,7.74108 3.62348,18.11742 4.61171,31.29372 1.15292,13.17631 1.64703,24.54088 1.64703,34.4231 l 0.98822,13.83512 c 0,36.07008 -2.63525,62.58752 -7.24696,79.55193 -4.11759,14.82341 -13.67042,24.37618 -28.49377,28.49379 -7.74108,2.14113 -21.9056,3.62348 -43.64651,4.61172 -21.4115,1.1529 -41.01125,1.64701 -59.12868,1.64701 l -26.1879,0.98824 c -69.01092,0 -111.99861,-2.63525 -128.96311,-7.24697 -14.82334,-4.11761 -24.37616,-13.67038 -28.49375,-28.49379 -2.141153,-7.74109 -3.623483,-18.11743 -4.611713,-31.29369 -1.15292,-13.17626 -1.64704,-24.54084 -1.64704,-34.42311 l -0.98822,-13.83513 c 0,-36.07013 2.63526,-62.58744 7.246973,-79.55194 4.11759,-14.82334 13.67041,-24.37617 28.49375,-28.49377 7.74108,-2.14115 21.90561,-3.62348 43.64651,-4.6117 21.4115,-1.15293 41.01126,-1.64704 59.12869,-1.64704 l 26.18791,-0.98823 c 69.0109,0 111.9986,2.63527 128.96309,7.24697 14.82335,4.1176 24.37618,13.67043 28.49377,28.49377 z" id="path3948" style="fill:#ffffff"/></g></svg>